#!OML:ASF F:\VICON\USERDATA\INSTALL\rory3\rory3.ASF
:FULLY-SPECIFIED
:DEGREES
129
root 0.360591 17.8244 -6.25614 0.253911 -5.04515 -6.79631
lowerback 9.76826 2.03245 5.3022
upperback 0.115538 3.41846 2.1805
thorax -5.18676 1.57676 -1.17386
lowerneck -17.004 -3.64972 -1.04995
upperneck 24.4622 -4.64599 -0.783155
head 10.6821 -2.31748 -0.758121
rclavicle 9.73424e-015 6.11263e-015
rhumerus -20.4262 -6.97586 -83.0818
rradius 33.3993
rwrist -0.177564
rhand -21.2326 25.2461
rfingers 7.12502
rthumb 5.14978 -4.67129
lclavicle 9.73424e-015 6.11263e-015
lhumerus -38.5008 4.52868 83.1627
lradius 24.6637
lwrist 8.95709
lhand -28.4265 15.494
lfingers 7.12502
lthumb -1.79787 45.4662
rfemur 9.91464 7.1125 33.4681
rtibia 25.0866
rfoot -18.6844 -5.63746
rtoes -7.47672
lfemur -25.6049 -0.986315 -13.3436
ltibia 15.6587
lfoot -4.51502 2.30345
ltoes -15.0458
130
root 0.382404 17.8518 -6.04475 0.0560487 -5.1286 -6.49582
lowerback 9.85084 2.04708 5.02909
upperback 0.0718962 3.41256 2.12658
thorax -5.29147 1.5769 -1.08216
lowerneck -16.7646 -3.63369 -1.13317
upperneck 24.3324 -4.63299 -0.667288
head 10.5938 -2.30708 -0.693692
rclavicle -1.83379e-014 -1.05356e-014
rhumerus -20.8075 -7.1714 -83.0099
rradius 33.4439
rwrist 0.0207525
rhand -21.0516 24.6901
rfingers 7.12502
rthumb 5.32456 -5.22302
lclavicle -1.83379e-014 -1.05356e-014
lhumerus -39.0395 4.34422 83.3189
lradius 25.1012
lwrist 9.3187
lhand -28.4147 16.6025
lfingers 7.12502
lthumb -1.78645 46.5748
rfemur 10.3455 6.86536 32.938
rtibia 25.9075
rfoot -18.1758 -4.89907
rtoes -8.28244
lfemur -25.4326 -0.949188 -13.9203
ltibia 16.9547
lfoot -3.39203 0.245327
ltoes -14.1683
131
root 0.402672 17.8548 -5.84417 -0.150099 -5.24866 -6.37545
lowerback 10.0066 2.08696 4.91865
upperback 0.0781983 3.46304 2.12041
thorax -5.37577 1.60232 -1.04087
lowerneck -16.7063 -3.55063 -1.13593
upperneck 24.2406 -4.53055 -0.607889
head 10.5505 -2.254 -0.655077
rclavicle 3.64024e-015 -1.39149e-014
rhumerus -21.1465 -7.31558 -82.9309
rradius 33.6482
rwrist 0.0210252
rhand -20.8016 24.2588
rfingers 7.12502
rthumb 5.56587 -5.64809
lclavicle 3.64024e-015 -1.39149e-014
lhumerus -39.3394 4.41173 83.3919
lradius 25.515
lwrist 9.14593
lhand -28.3018 16.8357
lfingers 7.12502
lthumb -1.67743 46.8088
rfemur 10.5531 6.77129 32.6786
rtibia 27.0426
rfoot -17.3678 -4.30477
rtoes -8.66192
lfemur -25.3651 -1.08932 -14.0785
ltibia 17.9213
lfoot -2.27387 -1.81495
ltoes -12.5912
132
root 0.418392 17.8527 -5.6467 -0.321495 -5.34295 -6.11235
lowerback 10.1887 2.16121 4.64095
upperback 0.0657033 3.53823 2.04835
thorax -5.49909 1.64244 -0.980605
lowerneck -16.6436 -3.55648 -1.19755
upperneck 24.261 -4.5534 -0.492696
head 10.5508 -2.25615 -0.606081
rclavicle 6.57232e-015 -2.11706e-014
rhumerus -21.5432 -7.44852 -82.8748
rradius 33.9752
rwrist -0.174934
rhand -20.4079 24.3404
rfingers 7.12502
rthumb 5.94597 -5.55618
lclavicle 6.57232e-015 -2.11706e-014
lhumerus -39.3808 4.2232 83.5125
lradius 25.4542
lwrist 9.4489
lhand -28.703 14.5881
lfingers 7.12502
lthumb -2.06487 44.5578
rfemur 10.499 6.87236 32.3679
rtibia 28.531
rfoot -16.4137 -3.95397
rtoes -9.03126
lfemur -25.3172 -0.891465 -14.4384
ltibia 18.7275
lfoot -1.71097 -3.5104
ltoes -10.8076
133
root 0.43273 17.864 -5.4429 -0.566139 -5.36925 -5.49794
lowerback 10.3407 2.22781 4.04152
upperback 0.0681289 3.55359 1.84802
thorax -5.60343 1.66133 -0.865193
lowerneck -16.4412 -3.61944 -1.1662
upperneck 24.2212 -4.67833 -0.401525
head 10.4992 -2.3007 -0.591197
rclavicle 1.58158e-014 -8.89561e-015
rhumerus -21.7703 -7.82178 -82.8429
rradius 33.8128
rwrist -0.183889
rhand -20.3998 25.1401
rfingers 7.12502
rthumb 5.95384 -4.75629
lclavicle 1.58158e-014 -8.89561e-015
lhumerus -39.2426 4.06393 83.5808
lradius 24.9719
lwrist 10.0457
lhand -29.2647 13.2945
lfingers 7.12502
lthumb -2.60732 43.2583
rfemur 10.2729 6.78076 31.6196
rtibia 30.435
rfoot -15.4137 -3.48568
rtoes -9.78518
lfemur -24.9486 -0.912902 -15.1442
ltibia 19.2777
lfoot -1.29752 -4.47397
ltoes -7.47204
134
root 0.448358 17.8836 -5.2333 -0.897356 -5.42273 -4.87462
lowerback 10.3947 2.29939 3.37601
upperback 0.122658 3.56274 1.72268
thorax -5.60715 1.683 -0.627717
lowerneck -16.1863 -3.64383 -1.1566
upperneck 24.0914 -4.72173 -0.384413
head 10.4032 -2.31994 -0.58504
rclavicle 2.4435e-014 4.96962e-015
rhumerus -21.985 -8.4106 -82.6976
rradius 33.5256
rwrist -0.0334355
rhand -20.5146 25.6717
rfingers 7.12502
rthumb 5.84296 -4.22773
lclavicle 2.4435e-014 4.96962e-015
lhumerus -39.2441 4.2728 83.5049
lradius 24.8131
lwrist 9.60226
lhand -28.8334 14.4235
lfingers 7.12502
lthumb -2.19085 44.392
rfemur 9.96511 6.59584 30.7906
rtibia 32.5429
rfoot -14.1675 -2.95504
rtoes -10.0168
lfemur -24.2262 -0.990565 -15.8702
ltibia 19.7694
lfoot -0.744354 -5.40645
ltoes -4.54521
135
root 0.470003 17.9025 -5.02277 -1.14719 -5.43512 -4.2955
lowerback 10.3787 2.31737 2.84287
upperback 0.182079 3.51209 1.58322
thorax -5.55951 1.67216 -0.466261
lowerneck -16.1668 -3.62039 -1.24646
upperneck 24.0475 -4.70124 -0.243085
head 10.39 -2.30211 -0.516375
rclavicle 1.339e-014 -3.37934e-015
rhumerus -22.1602 -9.00215 -82.6363
rradius 33.3852
rwrist -0.0617505
rhand -20.4881 24.9995
rfingers 7.12502
rthumb 5.86855 -4.89922
lclavicle 1.339e-014 -3.37934e-015
lhumerus -39.1721 4.5465 83.3582
lradius 24.693
lwrist 9.03925
lhand -28.2852 15.8499
lfingers 7.12502
lthumb -1.66136 45.8232
rfemur 9.42107 6.32037 29.9322
rtibia 34.7685
rfoot -12.522 -2.35849
rtoes -8.83607
lfemur -23.5817 -0.95759 -16.6488
ltibia 20.3372
lfoot 0.0399069 -6.5326
ltoes -2.02833
